<svg width="175" height="175" viewBox="0 0 175 175" fill="none" xmlns="http://www.w3.org/2000/svg">
<g clip-path="url(#clip0_630_55)">
<path d="M37.2285 46.5376L64.741 74.0501L30.6815 74.0501L30.6816 97.854L64.9913 97.854L42.1697 120.676C41.4453 121.4 41.4453 122.574 42.1686 123.298L56.3776 137.507C57.1009 138.23 58.2753 138.23 58.9997 137.506L81.7719 114.733L81.7719 153.642C81.7719 154.671 82.606 155.506 83.6344 155.504L103.711 155.504C104.741 155.504 105.575 154.67 105.575 153.641L105.575 114.732L129.66 138.817L146.491 121.986L105.375 80.8704L105.375 25.0134C105.375 23.9882 104.545 23.1585 103.521 23.1596L83.427 23.1596C82.4041 23.1596 81.5732 23.9904 81.5732 25.0134L81.5732 57.218L54.0607 29.7054C53.333 28.9777 52.1542 28.9777 51.4265 29.7054L37.2296 43.9024C36.5019 44.63 36.5019 45.8088 37.2296 46.5365L37.2285 46.5376Z" fill="#B0EE03"/>
</g>
<defs>
<clipPath id="clip0_630_55">
<rect width="132.474" height="114.734" fill="white" transform="translate(93.6738 174.803) rotate(-135)"/>
</clipPath>
</defs>
</svg>
